<svg xmlns="http://www.w3.org/2000/svg" version="1.1" xmlns:xlink="http://www.w3.org/1999/xlink" width="1000" height="1000"><g clip-path="url(#SvgjsClipPath1172)"><rect width="1000" height="1000" fill="#ffffff"></rect><g transform="matrix(3.5,0,0,3.5,150,150)"><svg xmlns="http://www.w3.org/2000/svg" version="1.1" xmlns:xlink="http://www.w3.org/1999/xlink" width="200" height="200"><svg viewBox="0 0 200 200" xmlns="http://www.w3.org/2000/svg">
          <path d="M34.7,-50.8C47.7,-45.6,62.8,-40.6,72.8,-29.9C82.8,-19.3,87.8,-3,86.7,13.3C85.6,29.5,78.5,45.7,67.1,57.3C55.7,69,40.1,76.1,24.7,77.8C9.2,79.5,-6,75.8,-20.9,71.3C-35.8,66.9,-50.5,61.7,-61.4,51.7C-72.4,41.8,-79.6,27.1,-77.5,13.7C-75.4,0.3,-64.1,-11.9,-56.4,-24.5C-48.7,-37.1,-44.7,-50.2,-35.9,-57.2C-27.1,-64.3,-13.5,-65.4,-1.3,-63.3C10.8,-61.2,21.7,-55.9,34.7,-50.8Z" fill="#6366F1" transform="translate(100 100)"></path>
        </svg></svg></g></g><defs><clipPath id="SvgjsClipPath1172"><rect width="1000" height="1000" x="0" y="0" rx="300" ry="300"></rect></clipPath></defs></svg>